# xmcd
#
# Track frame offsets:
#	150
#	11191
#	26124
#	45979
#	52886
#	63966
#	79117
#	94148
#	105220
#	117127
#	135456
#	148230
#	160640
#	171416
#	194978
#	207310
#	219843
#	228866
#	255122
#	270532
#	277470
#	285627
#	296728
#	311948
#
# Disc length: 4280 seconds
#
# Revision: 2
# Processed by: cddbd v1.4b41PL2 Copyright (c) Steve Scherf et al.
# Submitted via: EZCDDA 4.3.2
#
DISCID=6310b618
DTITLE=Tony Tammaro - Tutto Tony Tammaro Vol. 2
DYEAR=1900
DGENRE=
TTITLE0='o Trerrote
TTITLE1=La Villeggiatura
TTITLE2=Serenata Cell
TTITLE3=La Mia Banda Suona Il Rock
TTITLE4=Se Potrei Avere Te
TTITLE5=Il Mozzarellista
TTITLE6=Bottana
TTITLE7=Pronto Marì
TTITLE8=Torregaveta
TTITLE9=Tango Dei Tamarri
TTITLE10=Dint' 'a Villa
TTITLE11=Casa Cascella
TTITLE12=Alla Fiera Dell'est
TTITLE13=Un'altra Guerra
TTITLE14='a Cinquecento
TTITLE15=L'animale
TTITLE16=Si Piglio 'o Posto
TTITLE17=Anni Sessanta
TTITLE18=Ballerino
TTITLE19=Nella Vecchia Fattoria
TTITLE20=Samba Du Gassu
TTITLE21=Puzzulan Rap
TTITLE22=Karaoke
TTITLE23=Il Rock Dei Tamarri
EXTD=
EXTT0=
EXTT1=
EXTT2=
EXTT3=
EXTT4=
EXTT5=
EXTT6=
EXTT7=
EXTT8=
EXTT9=
EXTT10=
EXTT11=
EXTT12=
EXTT13=
EXTT14=
EXTT15=
EXTT16=
EXTT17=
EXTT18=
EXTT19=
EXTT20=
EXTT21=
EXTT22=
EXTT23=
PLAYORDER=
